<?xml version="1.0" encoding="utf-8"?>
<!-- Generator: Adobe Illustrator 23.0.1, SVG Export Plug-In . SVG Version: 6.00 Build 0)  -->
<svg version="1.1" id="Layer_1" xmlns="http://www.w3.org/2000/svg" xmlns:xlink="http://www.w3.org/1999/xlink" x="0px" y="0px"
	 viewBox="0 0 1000 234" style="enable-background:new 0 0 1000 234;" xml:space="preserve">
<style type="text/css">
	.st0{fill:#FFFFFF;}
	.st1{fill:#DB58C0;}
	.st2{fill:#47EABB;}
</style>
<g>
	<g>
		<g>
			<polygon class="st0" points="674.2,170.4 674.2,183.8 674.2,223.6 701.1,223.6 701.1,183.8 743.6,183.8 743.6,163.1 674.2,163.1 
							"/>
			<path class="st1" d="M695.2,120.4c-7.8,0-14.9,4.8-17.7,12.1l-3.3,8.6h26.9h53.3v-20.8H695.2z"/>
		</g>
		<g>
			<rect x="769.8" y="120.4" class="st1" width="26.9" height="20.8"/>
			<polygon class="st0" points="796.7,163.1 769.8,163.1 769.8,223.6 848.4,223.6 848.4,202.8 796.7,202.8 			"/>
		</g>
		<g>
			<rect x="353.2" y="120.4" class="st2" width="26.9" height="20.8"/>
			<rect x="286.9" y="120.4" class="st2" width="26.9" height="20.8"/>
			<polygon class="st0" points="313.8,163.1 286.9,163.1 286.9,223.6 313.8,223.6 313.8,183.8 353.2,183.8 353.2,223.6 380.1,223.6 
				380.1,163.1 			"/>
		</g>
		<g>
			<path class="st0" d="M240.4,199.9c-3.5,2.8-7.8,4.1-12.7,4.1c-5.3,0-9.8-1.2-13.3-3.6s-6.3-6-8-10.8c-1.8-4.8-2.7-10.7-2.7-17.6
				c0-3.3,0.2-6.2,0.6-8.9h-27.6c-0.3,2.9-0.5,5.8-0.5,8.9c0,11.1,2.1,20.7,6.1,28.6c4,7.9,9.9,14,17.5,18.2
				c7.6,4.2,16.6,6.3,27.1,6.3c7.3,0,14-1.1,20-3.2c6-2.1,11.3-5.5,15.7-10.1c4.4-4.6,7.6-10.5,9.6-17.7l-24.4-6.9
				C246.3,192.9,243.9,197.1,240.4,199.9z"/>
			<path class="st2" d="M268.5,141.2c-1.7-3.8-3.9-7.2-6.7-10c-4.2-4.2-9.3-7.3-15.3-9.3c-6-2.1-12.7-3.1-19.8-3.1
				c-10.3,0-19.3,2.1-26.9,6.3c-6.9,3.8-12.3,9.2-16.3,16.1H268.5z"/>
		</g>
		<g>
			<polygon class="st0" points="413.4,163.1 392.1,223.6 419.2,223.6 437.9,163.1 			"/>
			<polygon class="st2" points="467.8,141.2 460.5,120.4 428.4,120.4 421,141.2 			"/>
			<polygon class="st0" points="450.6,163.1 456.4,182 456.4,182 461.9,200.3 461.9,200.3 469,223.6 496.6,223.6 475.5,163.1 			"/>
		</g>
		<g>
			<rect x="508.7" y="120.4" class="st2" width="26.9" height="20.8"/>
			<rect x="508.7" y="163.1" class="st0" width="26.9" height="60.5"/>
		</g>
		<g>
			<polygon class="st2" points="600.2,141.2 588.2,120.4 558.4,120.4 558.4,141.2 			"/>
			<rect x="627.6" y="120.4" class="st2" width="23.7" height="20.8"/>
			<polygon class="st0" points="558.4,163.1 558.4,223.6 582.1,223.6 582.1,171.5 581.9,163.1 			"/>
			<polygon class="st0" points="627.6,163.1 627.6,172.4 628.2,191.5 628.1,191.5 620.3,176.2 612.7,163.1 587.1,163.1 589.5,167.7 
				621.5,223.6 651.4,223.6 651.4,163.1 			"/>
		</g>
		<g>
			<path class="st1" d="M940.5,141.2h22.4h35.7c-0.7-1.7-1.4-3.4-2.4-5c-3.1-5.1-7.6-9-13.6-11.7c-6-2.7-13.1-4-21.6-4h-47.4v20.8
				C913.6,141.2,940.5,141.2,940.5,141.2z"/>
			<path class="st0" d="M940.5,163.1h-26.9v60.5h26.9v-34.4H961c8.4,0,15.7-1.3,21.6-4c6-2.7,10.5-6.6,13.6-11.7
				c1.9-3.1,3.1-6.5,3.8-10.3C1000,163.1,940.5,163.1,940.5,163.1z"/>
		</g>
		<g>
			<rect x="864" y="120.4" class="st1" width="26.9" height="20.8"/>
			<rect x="864" y="163.1" class="st0" width="26.9" height="60.5"/>
		</g>
	</g>
	<g>
		<path class="st2" d="M5.1,155.1c0,10.5,4.3,20.5,12,27.7l21.1,19.6l0.1-61l61,0.1L77,120.7c-7-6.5-16.1-10.1-25.6-10.1l-46.3-0.1
			V155.1z"/>
		<path class="st1" d="M38.2,202.6l22.3,20.8c7,6.5,16.1,10.1,25.6,10.1l46.3,0.1v-44.6c0-10.5-4.3-20.4-12-27.6l-21.1-19.6l-0.1,61
			L38.2,202.6z"/>
	</g>
</g>
<g>
	<path class="st0" d="M5.5,55.1V8.5h19.5c2,0,3.9,0.4,5.6,1.2c1.7,0.8,3.2,2,4.4,3.4c1.2,1.4,2.2,3,2.9,4.7c0.7,1.7,1.1,3.5,1.1,5.3
		c0,2.5-0.6,4.9-1.7,7.2c-1.1,2.3-2.7,4.1-4.8,5.5c-2,1.4-4.4,2.1-7.2,2.1H10.2v17.2H5.5z M10.2,33.8h15.1c1.9,0,3.5-0.5,4.9-1.5
		c1.4-1,2.4-2.3,3.2-3.9c0.8-1.6,1.1-3.4,1.1-5.3c0-1.9-0.4-3.7-1.3-5.3c-0.9-1.6-2-2.9-3.5-3.8c-1.4-0.9-3-1.4-4.8-1.4H10.2V33.8z"
		/>
	<path class="st0" d="M60.2,55.7c-2.5,0-4.8-0.5-6.9-1.4c-2.1-0.9-3.9-2.2-5.4-3.9c-1.5-1.6-2.7-3.5-3.6-5.6
		c-0.8-2.1-1.3-4.3-1.3-6.7c0-2.4,0.4-4.7,1.3-6.8c0.8-2.1,2-4,3.6-5.6c1.5-1.6,3.4-2.9,5.5-3.9c2.1-0.9,4.4-1.4,6.9-1.4
		c2.5,0,4.8,0.5,6.8,1.4c2.1,0.9,3.9,2.2,5.4,3.9c1.6,1.6,2.7,3.5,3.6,5.6c0.8,2.1,1.3,4.4,1.3,6.8c0,2.3-0.4,4.6-1.3,6.7
		c-0.8,2.1-2,4-3.6,5.6s-3.3,2.9-5.4,3.9C64.9,55.2,62.6,55.7,60.2,55.7z M47.5,38.2c0,2.5,0.6,4.8,1.7,6.9c1.1,2.1,2.6,3.7,4.6,4.9
		c1.9,1.2,4,1.8,6.3,1.8c2.3,0,4.4-0.6,6.3-1.8c1.9-1.2,3.4-2.9,4.6-5c1.2-2.1,1.7-4.4,1.7-6.9c0-2.5-0.6-4.8-1.7-6.8
		c-1.2-2.1-2.7-3.7-4.6-5c-1.9-1.2-4-1.8-6.3-1.8c-2.3,0-4.4,0.6-6.3,1.9c-1.9,1.3-3.4,2.9-4.6,5C48.1,33.3,47.5,35.7,47.5,38.2z"/>
	<path class="st0" d="M127.3,21h4.5l-14.9,34.1h-3.9l-7.2-16.9l-7.2,16.9h-3.9L79.7,21h4.4l12.6,29.5l6.4-15.4l-5.8-14.1h4.1l4.4,11
		l4.5-11h4l-5.8,14.1l6.4,15.4L127.3,21z"/>
	<path class="st0" d="M151.5,55.7c-2.5,0-4.8-0.5-6.9-1.4c-2.1-0.9-4-2.2-5.5-3.9c-1.6-1.6-2.8-3.5-3.6-5.7
		c-0.9-2.1-1.3-4.4-1.3-6.9c0-3.2,0.7-6.1,2.2-8.7c1.5-2.6,3.5-4.8,6.1-6.4c2.6-1.6,5.6-2.4,8.9-2.4c3.4,0,6.4,0.8,8.9,2.4
		c2.5,1.6,4.6,3.7,6,6.4c1.5,2.6,2.2,5.5,2.2,8.6c0,0.3,0,0.7,0,1s0,0.6-0.1,0.7h-29.6c0.2,2.4,0.9,4.6,2.1,6.5
		c1.2,1.9,2.7,3.4,4.6,4.5c1.9,1.1,3.9,1.7,6.1,1.7c2.3,0,4.4-0.6,6.4-1.7c2-1.1,3.4-2.6,4.2-4.5l3.9,1c-0.7,1.6-1.8,3.1-3.3,4.4
		s-3.2,2.3-5.1,3.1C155.8,55.4,153.7,55.7,151.5,55.7z M138.7,36.4h25.6c-0.2-2.5-0.9-4.6-2-6.5c-1.2-1.9-2.7-3.3-4.6-4.4
		c-1.9-1.1-4-1.6-6.2-1.6c-2.3,0-4.3,0.5-6.2,1.6c-1.9,1.1-3.4,2.5-4.6,4.4C139.6,31.8,138.9,34,138.7,36.4z"/>
	<path class="st0" d="M192.8,24.8c-3,0.1-5.7,0.9-7.9,2.5c-2.3,1.6-3.9,3.7-4.8,6.5v21.3h-4.5V21h4.3v8.1c1.2-2.4,2.8-4.4,4.8-5.8
		c2-1.5,4.1-2.3,6.3-2.5c0.4,0,0.8-0.1,1.2-0.1c0.3,0,0.6,0,0.8,0.1V24.8z"/>
	<path class="st0" d="M212.7,55.7c-2.5,0-4.8-0.5-6.9-1.4c-2.1-0.9-4-2.2-5.5-3.9c-1.6-1.6-2.8-3.5-3.6-5.7
		c-0.9-2.1-1.3-4.4-1.3-6.9c0-3.2,0.7-6.1,2.2-8.7c1.5-2.6,3.5-4.8,6.1-6.4c2.6-1.6,5.6-2.4,8.9-2.4c3.4,0,6.4,0.8,8.9,2.4
		c2.5,1.6,4.6,3.7,6,6.4c1.5,2.6,2.2,5.5,2.2,8.6c0,0.3,0,0.7,0,1s0,0.6-0.1,0.7h-29.6c0.2,2.4,0.9,4.6,2.1,6.5
		c1.2,1.9,2.7,3.4,4.6,4.5c1.9,1.1,3.9,1.7,6.1,1.7c2.3,0,4.4-0.6,6.4-1.7c2-1.1,3.4-2.6,4.2-4.5l3.9,1c-0.7,1.6-1.8,3.1-3.3,4.4
		s-3.2,2.3-5.1,3.1C217.1,55.4,215,55.7,212.7,55.7z M200,36.4h25.6c-0.2-2.5-0.9-4.6-2-6.5c-1.2-1.9-2.7-3.3-4.6-4.4
		c-1.9-1.1-4-1.6-6.2-1.6c-2.3,0-4.3,0.5-6.2,1.6c-1.9,1.1-3.4,2.5-4.6,4.4C200.8,31.8,200.1,34,200,36.4z"/>
	<path class="st0" d="M234.5,38.2c0-3.2,0.7-6.2,2-8.8c1.4-2.7,3.2-4.8,5.6-6.4c2.4-1.6,5.1-2.4,8.2-2.4c2.9,0,5.5,0.8,7.7,2.3
		c2.3,1.5,4.1,3.3,5.3,5.5V7.2h4.5v42.5c0,0.6,0.1,1.1,0.4,1.3c0.3,0.3,0.7,0.4,1.2,0.5v3.5c-0.9,0.1-1.6,0.2-2.1,0.1
		c-0.9,0-1.8-0.4-2.5-1.1c-0.7-0.7-1.1-1.5-1.1-2.3v-3.3c-1.4,2.2-3.2,4-5.6,5.3c-2.3,1.3-4.8,2-7.3,2c-2.4,0-4.6-0.5-6.6-1.4
		c-2-1-3.8-2.3-5.3-3.9c-1.5-1.7-2.6-3.5-3.5-5.6C234.9,42.6,234.5,40.4,234.5,38.2z M263.4,43.4V32.9c-0.6-1.6-1.5-3-2.8-4.3
		c-1.3-1.3-2.7-2.3-4.4-3.1c-1.6-0.8-3.2-1.1-4.8-1.1c-1.9,0-3.5,0.4-5.1,1.1c-1.5,0.8-2.8,1.8-3.9,3.1c-1.1,1.3-1.9,2.8-2.5,4.4
		c-0.6,1.7-0.9,3.3-0.9,5.1c0,1.8,0.3,3.6,1,5.2c0.6,1.7,1.6,3.1,2.8,4.4c1.2,1.3,2.6,2.3,4.1,3c1.5,0.7,3.2,1,5.1,1
		c1.2,0,2.3-0.2,3.6-0.7c1.2-0.4,2.4-1,3.6-1.8c1.1-0.8,2.1-1.7,2.8-2.7C262.7,45.6,263.2,44.5,263.4,43.4z"/>
	<path class="st0" d="M312,55.7c-2.7,0-5.2-0.7-7.5-2.1c-2.3-1.4-4.1-3.1-5.4-5.2v6.6h-4.1V7.2h4.5v21.1c1.5-2.3,3.4-4.2,5.6-5.6
		c2.2-1.4,4.7-2.1,7.6-2.1c2.4,0,4.6,0.5,6.5,1.5c1.9,1,3.6,2.3,5,4c1.4,1.7,2.4,3.6,3.1,5.7c0.7,2.1,1.1,4.3,1.1,6.5
		c0,2.4-0.4,4.6-1.2,6.7c-0.8,2.1-2,3.9-3.5,5.6c-1.5,1.6-3.2,2.9-5.2,3.9C316.5,55.2,314.4,55.7,312,55.7z M310.9,51.8
		c1.9,0,3.6-0.4,5.2-1.1s3-1.8,4.1-3.1c1.2-1.3,2-2.8,2.7-4.4c0.6-1.6,0.9-3.3,0.9-5c0-2.4-0.5-4.6-1.6-6.7c-1-2.1-2.5-3.8-4.3-5.1
		c-1.8-1.3-4-1.9-6.5-1.9c-1.8,0-3.4,0.4-5,1.2c-1.5,0.8-2.9,1.8-4.1,3.1c-1.2,1.3-2.1,2.7-2.9,4.2v10.6c0.2,1.2,0.6,2.3,1.4,3.3
		c0.8,1,1.7,1.9,2.8,2.6c1.1,0.7,2.3,1.3,3.6,1.8C308.6,51.6,309.8,51.8,310.9,51.8z"/>
	<path class="st0" d="M336.9,65.6c0.6,0,1.2,0.1,1.8,0.1c0.6,0,1,0,1.3-0.1c0.5-0.1,1-0.4,1.5-0.9c0.5-0.5,1.1-1.5,1.7-3
		c0.7-1.5,1.6-3.7,2.8-6.5L330.9,21h4.8l12.7,29.5L360.1,21h4.5l-17.9,44c-0.3,0.8-0.8,1.6-1.4,2.3c-0.6,0.7-1.4,1.3-2.3,1.7
		c-0.9,0.4-2,0.6-3.4,0.7c-0.4,0-0.8,0.1-1.2,0c-0.4,0-0.9-0.1-1.5-0.2V65.6z"/>
</g>
</svg>
