<?xml version="1.0" encoding="utf-8"?>
<!-- Generator: Adobe Illustrator 23.0.1, SVG Export Plug-In . SVG Version: 6.00 Build 0)  -->
<svg version="1.1" id="Layer_1" xmlns="http://www.w3.org/2000/svg" xmlns:xlink="http://www.w3.org/1999/xlink" x="0px" y="0px"
	 viewBox="0 0 1000 109" style="enable-background:new 0 0 1000 109;" xml:space="preserve">
<style type="text/css">
	.st0{fill:#FFFFFF;}
	.st1{fill:#DB58C0;}
	.st2{fill:#47EABB;}
</style>
<g>
	<g>
		<g>
			<polygon class="st0" points="818.7,55.9 818.7,63.3 818.7,85.5 833.6,85.5 833.6,63.3 857.3,63.3 857.3,51.8 818.7,51.8 			"/>
			<path class="st1" d="M830.4,28.1c-4.4,0-8.3,2.7-9.9,6.8l-1.8,4.8h15h29.7V28.1H830.4z"/>
		</g>
		<g>
			<rect x="871.9" y="28.1" class="st1" width="15" height="11.6"/>
			<polygon class="st0" points="886.9,51.8 871.9,51.8 871.9,85.5 915.7,85.5 915.7,73.9 886.9,73.9 			"/>
		</g>
		<g>
			<rect x="640" y="28.1" class="st2" width="15" height="11.6"/>
			<rect x="603.1" y="28.1" class="st2" width="15" height="11.6"/>
			<polygon class="st0" points="618.1,51.8 603.1,51.8 603.1,85.5 618.1,85.5 618.1,63.3 640,63.3 640,85.5 655,85.5 655,51.8 			
				"/>
		</g>
		<g>
			<path class="st0" d="M577.3,72.3c-2,1.6-4.3,2.3-7.1,2.3c-3,0-5.4-0.7-7.4-2c-2-1.3-3.5-3.3-4.5-6c-1-2.7-1.5-5.9-1.5-9.8
				c0-1.8,0.1-3.4,0.3-4.9h-15.4c-0.2,1.6-0.3,3.2-0.3,4.9c0,6.2,1.1,11.5,3.4,15.9c2.3,4.4,5.5,7.8,9.7,10.2
				c4.2,2.4,9.3,3.5,15.1,3.5c4.1,0,7.8-0.6,11.1-1.8c3.4-1.2,6.3-3.1,8.7-5.6c2.4-2.6,4.2-5.9,5.3-9.9l-13.6-3.8
				C580.5,68.4,579.2,70.7,577.3,72.3z"/>
			<path class="st2" d="M592.9,39.6c-1-2.1-2.2-4-3.7-5.6c-2.3-2.3-5.2-4.1-8.5-5.2c-3.4-1.1-7.1-1.7-11-1.7c-5.8,0-10.7,1.2-15,3.5
				c-3.8,2.1-6.8,5.1-9,8.9H592.9z"/>
		</g>
		<g>
			<polygon class="st0" points="673.5,51.8 661.7,85.5 676.7,85.5 687.2,51.8 			"/>
			<polygon class="st2" points="703.8,39.6 699.8,28.1 681.9,28.1 677.8,39.6 			"/>
			<polygon class="st0" points="694.2,51.8 697.4,62.3 697.4,62.3 700.5,72.5 700.5,72.5 704.5,85.5 719.9,85.5 708.1,51.8 			"/>
		</g>
		<g>
			<rect x="726.6" y="28.1" class="st2" width="15" height="11.6"/>
			<rect x="726.6" y="51.8" class="st0" width="15" height="33.7"/>
		</g>
		<g>
			<polygon class="st2" points="777.5,39.6 770.8,28.1 754.2,28.1 754.2,39.6 			"/>
			<rect x="792.8" y="28.1" class="st2" width="13.2" height="11.6"/>
			<polygon class="st0" points="754.2,51.8 754.2,85.5 767.4,85.5 767.4,56.5 767.3,51.8 			"/>
			<polygon class="st0" points="792.8,51.8 792.8,57 793.1,67.6 793,67.6 788.7,59.1 784.5,51.8 770.2,51.8 771.5,54.4 789.4,85.5 
				806,85.5 806,51.8 			"/>
		</g>
		<g>
			<path class="st1" d="M966.9,39.6h12.4h19.9c-0.4-1-0.8-1.9-1.3-2.8c-1.7-2.8-4.2-5-7.6-6.5c-3.3-1.5-7.3-2.3-12-2.3h-26.4v11.6
				C951.9,39.6,966.9,39.6,966.9,39.6z"/>
			<path class="st0" d="M966.9,51.8h-15v33.7h15V66.3h11.4c4.7,0,8.7-0.7,12-2.3c3.3-1.5,5.8-3.7,7.6-6.5c1-1.7,1.7-3.6,2.1-5.8
				C1000,51.8,966.9,51.8,966.9,51.8z"/>
		</g>
		<g>
			<rect x="924.3" y="28.1" class="st1" width="15" height="11.6"/>
			<rect x="924.3" y="51.8" class="st0" width="15" height="33.7"/>
		</g>
	</g>
	<g>
		<path class="st2" d="M446.3,47.4c0,5.8,2.4,11.4,6.7,15.4l11.7,10.9l0-34l34,0l-12.4-11.6c-3.9-3.6-9-5.6-14.2-5.6l-25.8,0V47.4z"
			/>
		<path class="st1" d="M464.7,73.8l12.4,11.6c3.9,3.6,9,5.6,14.2,5.6l25.8,0V66.2c0-5.8-2.4-11.4-6.7-15.4l-11.7-10.9l0,34
			L464.7,73.8z"/>
	</g>
</g>
<g>
	<path class="st0" d="M6.7,85.4V32.7h22.1c2.3,0,4.4,0.5,6.3,1.4c1.9,0.9,3.6,2.2,5,3.8c1.4,1.6,2.5,3.4,3.3,5.3
		c0.8,2,1.2,3.9,1.2,6c0,2.9-0.6,5.6-1.9,8.1c-1.3,2.5-3.1,4.6-5.4,6.2c-2.3,1.6-5,2.4-8.1,2.4H11.9v19.4H6.7z M11.9,61.4H29
		c2.1,0,3.9-0.6,5.5-1.7c1.6-1.1,2.8-2.6,3.6-4.5c0.9-1.8,1.3-3.8,1.3-5.9c0-2.2-0.5-4.2-1.5-6c-1-1.8-2.3-3.3-3.9-4.3
		c-1.6-1.1-3.4-1.6-5.4-1.6H11.9V61.4z"/>
	<path class="st0" d="M68.4,86.2c-2.9,0-5.5-0.5-7.9-1.6c-2.4-1.1-4.4-2.5-6.2-4.4c-1.7-1.8-3.1-4-4-6.3c-1-2.4-1.4-4.9-1.4-7.6
		c0-2.8,0.5-5.3,1.4-7.7c1-2.4,2.3-4.5,4.1-6.3c1.8-1.8,3.8-3.3,6.2-4.4c2.4-1.1,5-1.6,7.8-1.6c2.8,0,5.4,0.5,7.7,1.6
		c2.4,1.1,4.4,2.5,6.2,4.4c1.8,1.8,3.1,4,4.1,6.3c1,2.4,1.4,5,1.4,7.7c0,2.7-0.5,5.2-1.4,7.6c-1,2.4-2.3,4.5-4,6.3
		c-1.7,1.8-3.8,3.3-6.2,4.4C73.8,85.6,71.2,86.2,68.4,86.2z M54.2,66.4c0,2.8,0.6,5.4,1.9,7.8c1.3,2.3,3,4.2,5.1,5.5
		c2.2,1.4,4.5,2,7.1,2c2.6,0,5-0.7,7.1-2.1c2.2-1.4,3.9-3.3,5.2-5.6c1.3-2.4,2-5,2-7.8c0-2.8-0.7-5.4-2-7.7c-1.3-2.4-3-4.2-5.2-5.6
		c-2.2-1.4-4.5-2.1-7.1-2.1c-2.6,0-5,0.7-7.1,2.1c-2.2,1.4-3.9,3.3-5.1,5.6C54.8,60.9,54.2,63.5,54.2,66.4z"/>
	<path class="st0" d="M144.3,46.9h5l-16.8,38.5h-4.4l-8.2-19.1l-8.1,19.1h-4.4L90.5,46.9h5l14.3,33.3l7.2-17.4L110.4,47h4.6l5,12.5
		l5-12.5h4.5l-6.5,15.9l7.2,17.4L144.3,46.9z"/>
	<path class="st0" d="M171.7,86.2c-2.8,0-5.4-0.5-7.8-1.6c-2.4-1.1-4.5-2.5-6.2-4.4c-1.8-1.8-3.1-4-4.1-6.4s-1.5-5-1.5-7.8
		c0-3.6,0.8-6.9,2.5-9.9c1.7-3,4-5.4,6.9-7.2c3-1.8,6.3-2.7,10.1-2.7c3.9,0,7.2,0.9,10.1,2.7c2.9,1.8,5.1,4.2,6.8,7.2
		c1.7,3,2.5,6.2,2.5,9.8c0,0.4,0,0.8,0,1.1c0,0.4,0,0.7-0.1,0.8h-33.5c0.3,2.8,1,5.2,2.4,7.3c1.3,2.1,3.1,3.8,5.2,5.1
		c2.1,1.3,4.4,1.9,6.9,1.9c2.6,0,5-0.6,7.2-1.9c2.3-1.3,3.9-3,4.8-5l4.4,1.2c-0.8,1.8-2,3.5-3.7,5c-1.7,1.5-3.6,2.6-5.8,3.4
		C176.6,85.7,174.2,86.2,171.7,86.2z M157.2,64.3h28.9c-0.2-2.8-1-5.2-2.3-7.3c-1.3-2.1-3.1-3.8-5.2-5c-2.1-1.2-4.5-1.8-7-1.8
		s-4.9,0.6-7,1.8c-2.1,1.2-3.8,2.9-5.1,5C158.2,59.2,157.4,61.6,157.2,64.3z"/>
	<path class="st0" d="M218.4,51.2c-3.4,0.1-6.4,1-9,2.8c-2.6,1.8-4.4,4.2-5.4,7.3v24h-5.1V46.9h4.8V56c1.4-2.7,3.1-4.9,5.4-6.6
		c2.2-1.7,4.6-2.6,7.1-2.8c0.5,0,0.9-0.1,1.3-0.1c0.4,0,0.7,0,0.9,0.1V51.2z"/>
	<path class="st0" d="M240.9,86.2c-2.8,0-5.4-0.5-7.8-1.6c-2.4-1.1-4.5-2.5-6.2-4.4c-1.8-1.8-3.1-4-4.1-6.4s-1.5-5-1.5-7.8
		c0-3.6,0.8-6.9,2.5-9.9c1.7-3,4-5.4,6.9-7.2c3-1.8,6.3-2.7,10.1-2.7c3.9,0,7.2,0.9,10.1,2.7c2.9,1.8,5.1,4.2,6.8,7.2
		c1.7,3,2.5,6.2,2.5,9.8c0,0.4,0,0.8,0,1.1c0,0.4,0,0.7-0.1,0.8h-33.5c0.3,2.8,1,5.2,2.4,7.3c1.3,2.1,3.1,3.8,5.2,5.1
		c2.1,1.3,4.4,1.9,6.9,1.9c2.6,0,5-0.6,7.2-1.9c2.3-1.3,3.9-3,4.8-5l4.4,1.2c-0.8,1.8-2,3.5-3.7,5c-1.7,1.5-3.6,2.6-5.8,3.4
		C245.9,85.7,243.5,86.2,240.9,86.2z M226.5,64.3h28.9c-0.2-2.8-1-5.2-2.3-7.3c-1.3-2.1-3.1-3.8-5.2-5c-2.1-1.2-4.5-1.8-7-1.8
		s-4.9,0.6-7,1.8c-2.1,1.2-3.8,2.9-5.1,5C227.5,59.2,226.7,61.6,226.5,64.3z"/>
	<path class="st0" d="M265.5,66.3c0-3.6,0.8-7,2.3-10c1.5-3,3.6-5.4,6.3-7.3s5.8-2.7,9.2-2.7c3.3,0,6.2,0.9,8.8,2.6
		c2.6,1.7,4.6,3.8,6,6.2V31.3h5.1v48.1c0,0.7,0.2,1.2,0.5,1.5c0.3,0.3,0.8,0.5,1.4,0.6v4c-1,0.1-1.8,0.2-2.3,0.1
		c-1.1,0-2-0.5-2.8-1.3c-0.8-0.8-1.2-1.7-1.2-2.6v-3.8c-1.6,2.5-3.7,4.5-6.3,6c-2.7,1.5-5.4,2.2-8.3,2.2c-2.7,0-5.2-0.5-7.5-1.6
		c-2.3-1.1-4.3-2.6-5.9-4.4c-1.7-1.9-3-4-3.9-6.4C265.9,71.3,265.5,68.9,265.5,66.3z M298.2,72.2V60.3c-0.7-1.8-1.7-3.4-3.2-4.8
		c-1.5-1.4-3.1-2.6-4.9-3.5c-1.8-0.9-3.6-1.3-5.4-1.3c-2.1,0-4,0.4-5.7,1.3c-1.7,0.9-3.2,2-4.4,3.5c-1.2,1.5-2.2,3.1-2.8,5
		c-0.7,1.9-1,3.8-1,5.7c0,2.1,0.4,4,1.1,5.9c0.7,1.9,1.8,3.5,3.1,5c1.4,1.4,2.9,2.6,4.7,3.4c1.8,0.8,3.7,1.2,5.7,1.2
		c1.3,0,2.7-0.2,4.1-0.7c1.4-0.5,2.7-1.2,4-2c1.3-0.9,2.3-1.9,3.2-3.1C297.4,74.7,298,73.5,298.2,72.2z"/>
	<path class="st0" d="M353.2,86.2c-3.1,0-5.9-0.8-8.5-2.3c-2.6-1.6-4.6-3.5-6.1-5.9v7.5H334V31.3h5.1v23.8c1.8-2.6,3.9-4.7,6.3-6.3
		c2.5-1.6,5.3-2.4,8.6-2.4c2.8,0,5.2,0.6,7.4,1.7s4,2.6,5.6,4.5c1.6,1.9,2.7,4,3.5,6.4c0.8,2.4,1.2,4.8,1.2,7.3
		c0,2.7-0.5,5.2-1.4,7.6c-0.9,2.4-2.2,4.5-3.9,6.3c-1.7,1.8-3.7,3.3-5.9,4.4C358.2,85.6,355.8,86.2,353.2,86.2z M352,81.7
		c2.1,0,4.1-0.4,5.9-1.3c1.8-0.8,3.4-2,4.7-3.5c1.3-1.5,2.3-3.1,3-5c0.7-1.8,1.1-3.7,1.1-5.7c0-2.7-0.6-5.2-1.8-7.6
		c-1.2-2.4-2.8-4.3-4.9-5.7c-2.1-1.4-4.5-2.2-7.3-2.2c-2,0-3.9,0.4-5.6,1.3c-1.7,0.9-3.3,2.1-4.6,3.5c-1.3,1.4-2.4,3-3.3,4.8v11.9
		c0.2,1.3,0.7,2.6,1.6,3.7c0.9,1.2,1.9,2.1,3.2,3c1.3,0.8,2.6,1.5,4,2C349.3,81.5,350.6,81.7,352,81.7z"/>
	<path class="st0" d="M381.2,97.3c0.7,0,1.4,0.1,2,0.1c0.6,0,1.1,0,1.4-0.1c0.6-0.1,1.2-0.4,1.7-1c0.6-0.6,1.2-1.7,2-3.4
		c0.8-1.7,1.8-4.1,3.2-7.4l-17.1-38.5h5.4l14.3,33.4l13.2-33.4h5.1l-20.3,49.7c-0.4,0.9-0.9,1.8-1.6,2.6c-0.7,0.8-1.6,1.5-2.6,1.9
		c-1,0.5-2.3,0.7-3.8,0.8c-0.5,0-0.9,0.1-1.4,0c-0.5,0-1-0.1-1.7-0.2V97.3z"/>
</g>
</svg>
