<?xml version="1.0" encoding="utf-8"?>
<!-- Generator: Adobe Illustrator 23.0.1, SVG Export Plug-In . SVG Version: 6.00 Build 0)  -->
<svg version="1.1" id="Layer_1" xmlns="http://www.w3.org/2000/svg" xmlns:xlink="http://www.w3.org/1999/xlink" x="0px" y="0px"
	 viewBox="0 0 1582.6 510.8" style="enable-background:new 0 0 1582.6 510.8;" xml:space="preserve">
<style type="text/css">
	.st0{fill:#FFFFFF;}
</style>
<path class="st0" d="M255.4,17.4c32.1,0,63.3,6.3,92.6,18.7c28.3,12,53.8,29.2,75.7,51c21.9,21.9,39,47.3,51,75.7
	c12.4,29.3,18.7,60.5,18.7,92.6s-6.3,63.3-18.7,92.6c-12,28.3-29.2,53.8-51,75.7c-21.9,21.9-47.3,39-75.7,51
	c-29.3,12.4-60.5,18.7-92.6,18.7s-63.3-6.3-92.6-18.7c-28.3-12-53.8-29.2-75.7-51c-21.9-21.9-39-47.3-51-75.7
	c-12.4-29.3-18.7-60.5-18.7-92.6s6.3-63.3,18.7-92.6c12-28.3,29.2-53.8,51-75.7s47.3-39,75.7-51C192.1,23.7,223.3,17.4,255.4,17.4
	 M255.4,0C114.3,0,0,114.3,0,255.4s114.3,255.4,255.4,255.4s255.4-114.3,255.4-255.4S396.4,0,255.4,0L255.4,0z"/>
<g>
	<g>
		<polygon class="st0" points="238.5,336.1 113.1,210.8 243.1,80.8 277.7,115.4 182.4,210.8 273.1,301.5 		"/>
	</g>
	<g>
		<polygon class="st0" points="267.7,430 233.1,395.4 328.4,300 237.7,209.3 272.3,174.7 397.7,300 		"/>
	</g>
</g>
<g>
	<path class="st0" d="M461.6,248.1h16.9c-1.8-56.5-24.7-107.8-61-146.1l-11.9,11.9C440.2,150.6,459.9,197.8,461.6,248.1z"/>
	<path class="st0" d="M262.1,32.2v16.9c50.2,1.6,97.2,21,133.9,55.3l12-11.9C369.6,56.5,318.5,33.9,262.1,32.2z"/>
	<path class="st0" d="M248.6,49.1V32.2c-56.4,1.7-107.5,24.2-145.9,60.2l11.9,11.9C151.4,70.2,198.5,50.7,248.6,49.1z"/>
	<path class="st0" d="M32.3,248.1h16.9c1.7-50.3,21.4-97.5,56-134.2l-12-11.9C56.9,140.3,34.1,191.5,32.3,248.1z"/>
	<path class="st0" d="M262.1,461.7v16.9c56.8-1.7,108.2-24.6,146.7-61l-11.9-11.9C360.1,440.3,312.7,460,262.1,461.7z"/>
	<path class="st0" d="M478.6,261.6h-16.9c-1.5,50.4-20.9,97.7-55.3,134.5l11.9,11.9C454.4,369.5,477,318.2,478.6,261.6z"/>
	<path class="st0" d="M49.1,261.6H32.2c1.5,56.6,24.1,107.9,60.2,146.4l11.9-11.9C70,359.2,50.6,312,49.1,261.6z"/>
	<path class="st0" d="M248.6,478.5v-16.9c-50.5-1.6-97.9-21.3-134.7-56l-11.9,12C140.5,454,191.9,476.9,248.6,478.5z"/>
</g>
<g>
	<path class="st0" d="M751,274.8l-25.3,87.7H662l-45.5-156.9h60.1l20.8,86.4l27.6-86.4h52.3l27.3,86.4l20.8-86.4h60.4l-45.5,156.9
		h-63.7L751,274.8z"/>
	<path class="st0" d="M901.4,145.8h55.9v167.9h87.1v48.7h-143V145.8z"/>
	<path class="st0" d="M1170.4,142.3c66.3,0,115.6,46.1,115.6,112.1s-49.4,112.1-115.6,112.1c-66.3,0-116-46.1-116-112.1
		S1104.1,142.3,1170.4,142.3z M1170.4,191.6c-36.1,0-59.1,27.3-59.1,62.7c0,35.1,23.1,62.7,59.1,62.7c35.7,0,58.8-27.6,58.8-62.7
		C1229.2,218.9,1206.1,191.6,1170.4,191.6z"/>
	<path class="st0" d="M1384.8,281l-14.6,18.2v63.3h-55.9V145.8h55.9v89l66.6-89h68.9l-84.1,101.4l88.7,115.3h-68.5L1384.8,281z"/>
	<path class="st0" d="M1526.7,145.8h55.9v216.7h-55.9V145.8z"/>
</g>
</svg>
