<svg id="Layer_1" data-name="Layer 1" xmlns="http://www.w3.org/2000/svg" viewBox="0 0 510.79 510.79"><defs><style>.cls-1{fill:#fff;}</style></defs><title>WLOKI_icon_white</title><path class="cls-1" d="M255.4,17.37A238.09,238.09,0,0,1,348,474.72,238.09,238.09,0,0,1,162.75,36.07a236.52,236.52,0,0,1,92.65-18.7M255.4,0C114.34,0,0,114.34,0,255.4S114.34,510.79,255.4,510.79,510.79,396.45,510.79,255.4,396.45,0,255.4,0Z"/><polygon class="cls-1" points="238.48 336.08 113.12 210.75 243.09 80.78 277.7 115.43 182.4 210.75 273.08 301.47 238.48 336.08"/><polygon class="cls-1" points="267.74 430.01 233.09 395.37 328.42 300.04 237.71 209.32 272.35 174.71 397.67 300.04 267.74 430.01"/><path class="cls-1" d="M461.65,248.08h16.88a222.46,222.46,0,0,0-61-146.1L405.64,113.9A204.78,204.78,0,0,1,461.65,248.08Z"/><path class="cls-1" d="M262.15,32.24V49.12a204.83,204.83,0,0,1,133.92,55.26L408,92.46A222.45,222.45,0,0,0,262.15,32.24Z"/><path class="cls-1" d="M248.65,49.12V32.24A222.45,222.45,0,0,0,102.8,92.46l11.92,11.92A204.86,204.86,0,0,1,248.65,49.12Z"/><path class="cls-1" d="M32.27,248.08H49.15a204.82,204.82,0,0,1,56-134.18L93.23,102A222.41,222.41,0,0,0,32.27,248.08Z"/><path class="cls-1" d="M262.15,461.66v16.88a222.45,222.45,0,0,0,146.67-61l-11.93-11.93A204.82,204.82,0,0,1,262.15,461.66Z"/><path class="cls-1" d="M478.57,261.58H461.69a204.88,204.88,0,0,1-55.28,134.49L418.34,408A222.44,222.44,0,0,0,478.57,261.58Z"/><path class="cls-1" d="M49.11,261.58H32.23A222.39,222.39,0,0,0,92.46,408l11.93-11.93A204.78,204.78,0,0,1,49.11,261.58Z"/><path class="cls-1" d="M248.65,478.54V461.66a204.86,204.86,0,0,1-134.75-56L102,417.57A222.43,222.43,0,0,0,248.65,478.54Z"/></svg>